<svg xmlns="http://www.w3.org/2000/svg" xmlns:xlink="http://www.w3.org/1999/xlink" width="460.588" height="434.597" viewBox="0 0 460.588 434.597">
  <defs>
    <linearGradient id="linear-gradient" x1="0.5" x2="0.5" y2="1" gradientUnits="objectBoundingBox">
      <stop offset="0" stop-color="#ededed"/>
      <stop offset="1" stop-color="#ededed"/>
    </linearGradient>
    <clipPath id="clip-path">
      <rect id="사각형_31401" data-name="사각형 31401" width="404.421" height="404.421" rx="202" transform="translate(0 0)" fill="#ededed"/>
    </clipPath>
    <linearGradient id="linear-gradient-2" x1="0.5" x2="0.5" y2="1" gradientUnits="objectBoundingBox">
      <stop offset="0" stop-color="#e5e5e5"/>
      <stop offset="1" stop-color="#e5e5e5"/>
    </linearGradient>
  </defs>
  <g id="그룹_4279" data-name="그룹 4279" transform="translate(-340.446 -436.459)">
    <rect id="사각형_30892" data-name="사각형 30892" width="404.421" height="404.421" rx="202" transform="translate(340.446 465.569)" opacity="0.8" fill="url(#linear-gradient)"/>
    <g id="마스크_그룹_187" data-name="마스크 그룹 187" transform="translate(340.446 464.775)" clip-path="url(#clip-path)">
      <g id="그룹_4159" data-name="그룹 4159" transform="translate(-21.672 -27.821)">
        <path id="패스_810" data-name="패스 810" d="M-1549.367,2520.977c-9.68-39.4-36.682-48.568-55.362-51.286s-25.473,15.963-32.1,22.076-10.36,15.794-10.019,20.719-5.095,22.756-5.095,22.756l-3.485-2.208-13.5,12.227c-18.681-1.359-58.759,15.793-58.759,15.793h-6.962c-24.964,19.87-66.231,133.99-66.231,133.99l3.566,2.207-.623,2.349-12.113,45.68s-4.076,16.844-3.905,43.676-.006,63.343-.006,63.343-1.013,9-4.579,15.114-2.718,18.358-2.718,18.358.17,5.756.255,8.474-.343,9.681-.343,9.681-1.185,6.028,2.466,7.3a7.292,7.292,0,0,1,4.585,4.16s2.124,5.774,4.925,5.859,17.832-.849,17.832-.849l2.207-4.246,7.133.085s2.989-.077,5.032-13.788v0l26.692,144.51h122.084l1.282-178.718s-18.591-10.5-23.461-13.252-4.751-5.072-4.751-5.072c.12-5.858-.313-7.133,7.347-23.737s19.088-19.977,19.088-19.977l14.618,7.591,7.713-9.567-13.609-8.051c-4.1-2.836.5-13.178.5-13.178,5.743-16.992,19.184-36.606,19.184-36.606l-.31-20.933s-.764-42.522,1.273-67.1-1.783-36.681-10.953-43.942-9.213-16.558-9.213-16.558a84.766,84.766,0,0,0,12.057,2.252c5.179.423,6.878-8.237,6.878-8.237l5.179-1.443.169-2.717h2.633l2.887-3.736c8.407,3.481,10.784-1.528,10.784-1.528l1.953-18.765,11.378-9.6,7.727-22.417C-1545.631,2530.148-1549.367,2520.977-1549.367,2520.977Z" transform="translate(1821.524 -2469.423)" fill="url(#linear-gradient-2)"/>
        <g id="그룹_4164" data-name="그룹 4164" transform="translate(20.65 0)">
          <g id="그룹_4158" data-name="그룹 4158" transform="translate(0)">
            <path id="패스_844" data-name="패스 844" d="M-1022.376,2342.723l-26.834-144.47" transform="translate(1072.918 -1765.225)" fill="none" stroke="#c9c9c9" stroke-miterlimit="10" stroke-width="1"/>
            <path id="패스_844-2" data-name="패스 844" d="M-1080.733,1785.165l-3.567-2.208s41.267-114.12,66.232-133.989h6.963s40.078-17.153,58.759-15.793l13.5-12.229,3.486,2.208s5.434-17.832,5.095-22.757,3.4-14.6,10.019-20.719,13.415-24.8,32.1-22.076,45.682,11.887,55.362,51.286c0,0,3.736,9.17-8.661,10.7L-849.181,1642l-11.379,9.594-1.953,18.766s-2.377,5.009-10.783,1.528l-2.887,3.736h-2.635l-.169,2.717-5.18,1.443s-1.7,8.661-6.877,8.235a84.678,84.678,0,0,1-12.057-2.252s.043,9.3,9.213,16.559,12.992,19.36,10.953,43.941-1.274,67.1-1.274,67.1l.31,20.933s-13.442,19.615-19.185,36.605c0,0-4.6,10.342-.5,13.177l13.608,8.051-7.714,9.567-14.618-7.591s-11.428,3.373-19.087,19.976-7.229,17.88-7.348,23.738c0,0-.118,2.321,4.751,5.071l23.46,13.252-1.833,178.822" transform="translate(1084.3 -1557.333)" fill="none" stroke="#c9c9c9" stroke-miterlimit="10" stroke-width="1"/>
          </g>
        </g>
        <path id="패스_845" data-name="패스 845" d="M-1337.7,2802.861l-3.77-1.026-15.559,13.669-39.269,2.606-10.3-9.017-1.855-27.959,18.1-15.084h0l4.035-3.361-3.389-4.637-32.933,7.418-1.978,3.216h0l-2.285,3.717-11.133,7.28,2.4,36.23,8.583,18.407-11.4.756-10.605.705,6.618-8.865-6.924-52.385-31.466-4.826-2.58-8.105-1.5-.7a1.514,1.514,0,0,0-.251-.161l-1.82-.8-6.039-2.806-.922-4.278-19.427-8.71,2.51-8.336-16.422-6.4s-4.178,2.2-10.924,5.768l0,0-7.838-4.637c-1.321-.781-5.514,3.863-9.365,10.373q-.369.624-.714,1.236l.087-.176L-1576.272,2730c-3.934-2.328-16.422,11.5-27.892,30.889s-17.579,36.99-13.644,39.317l25.243,14.934c-.1,2.114.291,3.552,1.257,4.122l8.819,5.219c.246-.978.515-1.947.78-2.917l8.214,4.859a39.513,39.513,0,0,0-.588,9.356l-1.376,2.647-48.961-27.654-.007.011c-4.206-2.021-13.318,6.5-20.518,19.244s-9.792,24.948-5.888,27.507l-.008.012,49.548,27.987c1.947,1.1,5.04-.245,8.525-3.309l0,.007,11.825,5.34-6.153,4.57-4.266.283-.028,2.909h0l-.114,11.4,11.1-.737,13.146-16.94.033.012,15.006-.741,3.4-3.99,4.217,2.074,9.163-18.762,8.806,22.4,10.431,10.184,24.1-21.513,9.457,12.989,47.106-3.128.894-.423.1.358-.03-.39,13.023-6.174,24.019-1.595,38.6-32.656h0l12.645-10.7Zm-197.724,64.767h.047l-.057.02Z" transform="translate(1818.75 -2473.698)" fill="#f0f0f0"/>
        <path id="패스_843" data-name="패스 843" d="M-1090.646,1894.544l-.623,2.348-12.113,45.682s-4.076,16.843-3.907,43.674,0,63.344,0,63.344-1.014,9-4.579,15.115-2.718,18.358-2.718,18.358.17,5.757.255,8.475-.343,9.68-.343,9.68-1.185,6.027,2.465,7.3a7.293,7.293,0,0,1,4.585,4.161s2.123,5.774,4.925,5.859,17.832-.849,17.832-.849l2.207-4.246,7.133.085s3.821-.085,5.775-19.87,3.481-18.512-1.444-26.917,3.648-60.287,6.2-71.326,24.115-83.892,24.115-83.892" transform="translate(1114.864 -1666.713)" fill="none" stroke="#c9c9c9" stroke-miterlimit="10" stroke-width="1"/>
        <g id="그룹_4157" data-name="그룹 4157" transform="translate(166.1 255.712)">
          <line id="선_535" data-name="선 535" y1="9.708" x2="10.631" transform="translate(304.318 73.412)" fill="none" stroke="#427dff" stroke-miterlimit="10" stroke-width="0.5"/>
          <line id="선_536" data-name="선 536" y1="13.581" x2="12.119" transform="translate(244.349 89.149)" fill="none" stroke="#427dff" stroke-miterlimit="10" stroke-width="0.5"/>
          <line id="선_537" data-name="선 537" y1="3.114" x2="3.788" transform="translate(259.571 29.208)" fill="none" stroke="#427dff" stroke-miterlimit="10" stroke-width="0.5"/>
          <path id="패스_811" data-name="패스 811" d="M-1540.62,2848.469l22.681,8.652c8.671,3.307,18.743-.979,21.887-9.711a16.557,16.557,0,0,0-9.679-21.075l-9.173-3.229s8.672-32.588,32.055-59.589a1.5,1.5,0,0,0-.462-2.331l-10.648-4.682S-1513.318,2761.094-1540.62,2848.469Z" transform="translate(1650.805 -2729.856)" fill="none" stroke="#427dff" stroke-miterlimit="10" stroke-width="2"/>
          <path id="패스_812" data-name="패스 812" d="M-1491.531,2757.571s-19.672,4.487-46.912,92.015" transform="translate(1650.769 -2729.874)" fill="none" stroke="#427dff" stroke-miterlimit="10" stroke-width="0.5"/>
          <path id="패스_813" data-name="패스 813" d="M-1425.811,2852.589l-16.161,4.953-27.112,1.8-18.789-25.985s-9.879-12.971-21.4-7.329" transform="translate(1650.289 -2730.977)" fill="none" stroke="#427dff" stroke-miterlimit="10" stroke-width="2"/>
          <path id="패스_814" data-name="패스 814" d="M-1432.044,2890.348l-8.8-32.6,4.759-20.824" transform="translate(1649.164 -2731.178)" fill="none" stroke="#427dff" stroke-miterlimit="10" stroke-width="0.5"/>
          <path id="패스_815" data-name="패스 815" d="M-1431.037,2890.282l-8.8-32.6,4.758-20.825" transform="translate(1649.147 -2731.177)" fill="none" stroke="#427dff" stroke-miterlimit="10" stroke-width="0.5"/>
          <path id="패스_816" data-name="패스 816" d="M-1456.007,2849.966l-10.142-50.227,19.864-24.453" transform="translate(1649.58 -2730.165)" fill="none" stroke="#427dff" stroke-miterlimit="10" stroke-width="0.5"/>
          <line id="선_538" data-name="선 538" x1="16.632" y1="21.077" transform="translate(143.925 128.232)" fill="none" stroke="#427dff" stroke-miterlimit="10" stroke-width="2"/>
          <path id="패스_817" data-name="패스 817" d="M-1432.105,2815.6l20.031-1.33a4.023,4.023,0,0,0,3.747-4.281l-1.7-25.547-.554-8.349c-.335-5.041-4.875-7.662-12.735-3.014l-11.133,7.28" transform="translate(1649.058 -2730.089)" fill="none" stroke="#427dff" stroke-miterlimit="10" stroke-width="2"/>
          <path id="패스_818" data-name="패스 818" d="M-1386.535,2766.59l-2.728-4.317-31.539,6.953" transform="translate(1648.834 -2729.952)" fill="none" stroke="#427dff" stroke-miterlimit="10" stroke-width="0.5"/>
          <path id="패스_819" data-name="패스 819" d="M-1536.286,2735.177c6.745-3.567,10.924-5.766,10.924-5.766l16.422,6.4-2.51,8.336,19.427,8.71.922,4.278,9.615,4.468,2.58,8.105" transform="translate(1650.733 -2729.411)" fill="none" stroke="#427dff" stroke-miterlimit="10" stroke-width="2"/>
          <path id="패스_820" data-name="패스 820" d="M-1417.954,2882.43l24.019-1.594,51.245-43.356,8.584-34.14-3.77-1.026-15.559,13.671-39.27,2.606-10.3-9.018-1.856-27.959,22.135-18.447-3.389-4.638-32.933,7.42-4.262,6.933-11.133,7.28,2.405,36.231,8.583,18.406" transform="translate(1649.058 -2729.889)" fill="none" stroke="#427dff" stroke-miterlimit="10" stroke-width="2"/>
          <path id="패스_821" data-name="패스 821" d="M-1355.295,2849.091l10.6-35.131-5,.332-16.36,16.337-38.612,2.9-16.612-16.938-10.718.711" transform="translate(1649.018 -2730.801)" fill="none" stroke="#427dff" stroke-miterlimit="10" stroke-width="0.5"/>
          <circle id="타원_170" data-name="타원 170" cx="10.982" cy="10.982" r="10.982" transform="translate(128.332 100.693)" fill="none" stroke="#427dff" stroke-miterlimit="10" stroke-width="2"/>
          <ellipse id="타원_171" data-name="타원 171" cx="7.067" cy="8.256" rx="7.067" ry="8.256" transform="translate(165.455 97.126) rotate(-74.554)" fill="none" stroke="#427dff" stroke-miterlimit="10" stroke-width="2"/>
          <circle id="타원_172" data-name="타원 172" cx="3.412" cy="3.412" r="3.412" transform="translate(223.772 90.001)" fill="none" stroke="#427dff" stroke-miterlimit="10" stroke-width="2"/>
          <circle id="타원_173" data-name="타원 173" cx="3.412" cy="3.412" r="3.412" transform="translate(264.436 123.522)" fill="none" stroke="#427dff" stroke-miterlimit="10" stroke-width="2"/>
          <path id="패스_822" data-name="패스 822" d="M-1524.732,2892.051l18.827-18.457s-28.19-4.565-31.686-22.432" transform="translate(1650.755 -2731.413)" fill="none" stroke="#427dff" stroke-miterlimit="10" stroke-width="2"/>
          <path id="패스_823" data-name="패스 823" d="M-1541.421,2848.168l-17.239,35.183-30.682-16.089,16.3-31.34s-2.17-17.8,17.887-58.918c0,0,13.918-27.307,28.985-38.774l13.847,6.059" transform="translate(1651.606 -2729.556)" fill="none" stroke="#427dff" stroke-miterlimit="10" stroke-width="2"/>
          <path id="패스_824" data-name="패스 824" d="M-1547.381,2886.927l-3.4,3.99-15.006.741" transform="translate(1651.219 -2732.001)" fill="none" stroke="#427dff" stroke-miterlimit="10" stroke-width="2"/>
          <path id="패스_825" data-name="패스 825" d="M-1447.087,2837.536l10.606-.7,11.4-.757-1.124,16.7,6.626,30.928-13.984,6.629-47.107,3.127-9.457-12.988-24.1,21.512-10.432-10.183-8.806-22.4" transform="translate(1650.687 -2731.165)" fill="none" stroke="#427dff" stroke-miterlimit="10" stroke-width="2"/>
          <path id="패스_826" data-name="패스 826" d="M-1440.008,2827.591l-6.924-52.386-31.466-4.825c-24.682,28.145-27.084,46.806-27.084,46.806,6.243-1.184,15,1.865,20.28,9.365l17.491,24.068,11.056-.734Z" transform="translate(1650.227 -2730.085)" fill="none" stroke="#427dff" stroke-miterlimit="10" stroke-width="2"/>
          <path id="패스_827" data-name="패스 827" d="M-1445.953,2775.286" transform="translate(1649.248 -2730.166)" fill="none" stroke="#427dff" stroke-miterlimit="10" stroke-width="2"/>
          <path id="패스_828" data-name="패스 828" d="M-1574.875,2840.111l-49.546-27.984-.007.012c-4.206-2.022-13.318,6.495-20.518,19.243s-9.791,24.949-5.888,27.507l-.008.013,49.549,27.987" transform="translate(1652.647 -2730.767)" fill="none" stroke="#427dff" stroke-miterlimit="10" stroke-width="2"/>
          <path id="패스_829" data-name="패스 829" d="M-1601.092,2886.875c-3.2-3.226-.53-14.931,6.361-27.132,7.294-12.913,16.553-21.492,20.683-19.166" transform="translate(1651.821 -2731.233)" fill="none" stroke="#427dff" stroke-miterlimit="10" stroke-width="0.5"/>
          <path id="패스_830" data-name="패스 830" d="M-1600.444,2888.136a2.864,2.864,0,0,1-.626-.48" transform="translate(1651.799 -2732.013)" fill="none" stroke="#427dff" stroke-miterlimit="10" stroke-width="2"/>
          <path id="패스_831" data-name="패스 831" d="M-1582.451,2873.192c-6.745,10.363-14.35,16.758-17.982,14.706" transform="translate(1651.788 -2731.775)" fill="none" stroke="#427dff" stroke-miterlimit="10" stroke-width="2"/>
          <path id="패스_832" data-name="패스 832" d="M-1560.821,2884.555l-18.555,23.911-11.1.737.143-14.306,9.437-.626,10.771-14.594Z" transform="translate(1651.625 -2731.882)" fill="none" stroke="#427dff" stroke-miterlimit="10" stroke-width="2"/>
          <line id="선_539" data-name="선 539" x2="0.054" y2="11.387" transform="translate(72.194 165.196)" fill="none" stroke="#427dff" stroke-miterlimit="10" stroke-width="0.5"/>
          <line id="선_540" data-name="선 540" x1="5.262" y2="0.349" transform="translate(238.915 51.415)" fill="none" stroke="#427dff" stroke-miterlimit="10" stroke-width="0.5"/>
          <path id="패스_833" data-name="패스 833" d="M-1590.361,2897.833l10.932-.726,11.15-15.679" transform="translate(1651.623 -2731.911)" fill="none" stroke="#427dff" stroke-miterlimit="10" stroke-width="0.5"/>
          <line id="선_541" data-name="선 541" x1="13.676" y1="6.174" transform="translate(59.884 152.821)" fill="none" stroke="#427dff" stroke-miterlimit="10" stroke-width="2"/>
          <path id="패스_834" data-name="패스 834" d="M-1410.165,2782.252c-.4-6.1-4.171-11.3-12.152-5.958l-11.7,7.987" transform="translate(1649.051 -2730.146)" fill="none" stroke="#427dff" stroke-miterlimit="10" stroke-width="0.5"/>
          <path id="패스_835" data-name="패스 835" d="M-1559.3,2754.072a171.705,171.705,0,0,0-16.392,23.475c-12.288,20.769-18.832,39.627-14.617,42.12l8.819,5.22h0A153.884,153.884,0,0,1-1548,2761.017" transform="translate(1651.643 -2729.816)" fill="none" stroke="#427dff" stroke-miterlimit="10" stroke-width="2"/>
          <path id="패스_836" data-name="패스 836" d="M-1591.582,2815.394l-25.664-15.184c-3.934-2.326,2.175-19.93,13.645-39.317s23.957-33.216,27.891-30.889l20.244,11.977" transform="translate(1652.085 -2729.416)" fill="none" stroke="#427dff" stroke-miterlimit="10" stroke-width="2"/>
          <path id="패스_837" data-name="패스 837" d="M-1530.222,2738.994c-1.321-.781-5.515,3.862-9.366,10.373a48.73,48.73,0,0,0-4.091,9.726" transform="translate(1650.855 -2729.568)" fill="none" stroke="#427dff" stroke-miterlimit="10" stroke-width="0.5"/>
          <path id="패스_838" data-name="패스 838" d="M-1529.947,2742.169c.468-1.7.485-2.858-.05-3.175" transform="translate(1650.63 -2729.568)" fill="none" stroke="#427dff" stroke-miterlimit="10" stroke-width="2"/>
          <path id="패스_839" data-name="패스 839" d="M-1545.982,2761.507l-12.459-7.371c-1.321-.782.73-6.693,4.583-13.2s8.044-11.156,9.366-10.374l14.021,8.3" transform="translate(1651.104 -2729.428)" fill="none" stroke="#427dff" stroke-miterlimit="10" stroke-width="2"/>
          <line id="선_542" data-name="선 542" x2="8.39" y2="4.964" transform="translate(70.925 92.144)" fill="none" stroke="#427dff" stroke-miterlimit="10" stroke-width="2"/>
          <rect id="사각형_31395" data-name="사각형 31395" width="4.298" height="13.372" rx="2.149" transform="translate(133.19 108.239) rotate(-42.885)" fill="none" stroke="#427dff" stroke-miterlimit="10" stroke-width="0.5"/>
          <path id="패스_840" data-name="패스 840" d="M-1530.163,2863.189" transform="translate(1650.633 -2731.611)" fill="none" stroke="#427dff" stroke-miterlimit="10" stroke-width="2"/>
          <path id="패스_841" data-name="패스 841" d="M-1530.595,2862.985l-12.415,25.422-13.4-6.594,15.153-31.029" transform="translate(1651.064 -2731.407)" fill="none" stroke="#427dff" stroke-miterlimit="10" stroke-width="2"/>
          <ellipse id="타원_174" data-name="타원 174" cx="1.528" cy="2.774" rx="1.528" ry="2.774" transform="translate(39.971 146.344) rotate(-63.797)" fill="none" stroke="#427dff" stroke-miterlimit="10" stroke-width="2"/>
          <ellipse id="타원_175" data-name="타원 175" cx="1.528" cy="2.774" rx="1.528" ry="2.774" transform="translate(41.412 138.363) rotate(-63.797)" fill="none" stroke="#427dff" stroke-miterlimit="10" stroke-width="2"/>
          <path id="패스_842" data-name="패스 842" d="M-1419.845,2776.376a5.2,5.2,0,0,0,.487,7.331,5.2,5.2,0,0,0,7.331-.487" transform="translate(1648.839 -2730.183)" fill="none" stroke="#427dff" stroke-miterlimit="10" stroke-width="0.5"/>
        </g>
      </g>
    </g>
    <path id="패스_855" data-name="패스 855" d="M-1337.7,2802.861l-3.77-1.026-15.559,13.669-39.269,2.606-10.3-9.017-1.855-27.959,18.1-15.084h0l4.035-3.361-3.389-4.637-32.933,7.418-1.978,3.216h0l-2.285,3.717-11.133,7.28,2.4,36.23,8.583,18.407-11.4.756-10.605.705,6.618-8.865-6.924-52.385-31.466-4.826-2.58-8.105-1.5-.7a1.514,1.514,0,0,0-.251-.161l-1.82-.8-6.039-2.806-.922-4.278-19.427-8.71,2.51-8.336-16.422-6.4s-4.178,2.2-10.924,5.768l0,0-7.838-4.637c-1.321-.781-5.514,3.863-9.365,10.373q-.369.624-.714,1.236l.087-.176L-1576.272,2730c-3.934-2.328-16.422,11.5-27.892,30.889s-17.579,36.99-13.644,39.317l25.243,14.934c-.1,2.114.291,3.552,1.257,4.122l8.819,5.219c.246-.978.515-1.947.78-2.917l8.214,4.859a39.513,39.513,0,0,0-.588,9.356l-1.376,2.647-48.961-27.654-.007.011c-4.206-2.021-13.318,6.5-20.518,19.244s-9.792,24.948-5.888,27.507l-.008.012,49.548,27.987c1.947,1.1,5.04-.245,8.525-3.309l0,.007,11.825,5.34-6.153,4.57-4.266.283-.028,2.909h0l-.114,11.4,11.1-.737,13.146-16.94.033.012,15.006-.741,3.4-3.99,4.217,2.074,9.163-18.762,8.806,22.4,10.431,10.184,24.1-21.513,9.457,12.989,47.106-3.128.894-.423.1.358-.03-.39,13.023-6.174,24.019-1.595,38.6-32.656h0l12.645-10.7Zm-197.724,64.767h.047l-.057.02Z" transform="translate(2137.523 -2036.743)" fill="#f0f0f0"/>
    <path id="패스_856" data-name="패스 856" d="M-1477.665,2520.977c-9.679-39.4-36.681-48.568-55.362-51.286s-25.473,15.963-32.1,22.076-10.36,15.794-10.02,20.719-5.095,22.756-5.095,22.756l-3.485-2.208-13.5,12.227c-18.681-1.359,49.249,52.6,49.249,52.6a84.758,84.758,0,0,0,12.057,2.252c5.179.423,6.878-8.237,6.878-8.237l5.179-1.443.169-2.717h2.633l2.887-3.736c8.406,3.481,10.784-1.528,10.784-1.528l1.953-18.765,11.377-9.6,7.727-22.417C-1473.929,2530.148-1477.665,2520.977-1477.665,2520.977Z" transform="translate(2068.596 -2032.469)" fill="url(#linear-gradient-2)"/>
    <g id="그룹_4167" data-name="그룹 4167" transform="translate(405.656 436.955)">
      <g id="그룹_4158-2" data-name="그룹 4158" transform="translate(0 0)">
        <path id="패스_844-3" data-name="패스 844" d="M-986.271,1648.968h6.963s40.078-17.153,58.759-15.793l13.5-12.229,3.486,2.208s5.434-17.832,5.1-22.757,3.4-14.6,10.019-20.719,13.415-24.8,32.1-22.076,45.682,11.887,55.362,51.286c0,0,3.736,9.17-8.661,10.7L-817.384,1642l-11.379,9.594-1.953,18.766s-2.377,5.009-10.783,1.528l-2.887,3.736h-2.635l-.169,2.717-5.18,1.443s-1.7,8.661-6.877,8.235a84.672,84.672,0,0,1-12.057-2.252s.042,9.3,9.213,16.559" transform="translate(986.271 -1557.333)" fill="none" stroke="#c9c9c9" stroke-miterlimit="10" stroke-width="1"/>
      </g>
    </g>
    <g id="그룹_4166" data-name="그룹 4166" transform="translate(484.874 692.666)">
      <line id="선_535-2" data-name="선 535" y1="9.708" x2="10.631" transform="translate(304.318 73.412)" fill="none" stroke="#427dff" stroke-miterlimit="10" stroke-width="0.5"/>
      <line id="선_536-2" data-name="선 536" y1="13.581" x2="12.119" transform="translate(244.349 89.149)" fill="none" stroke="#427dff" stroke-miterlimit="10" stroke-width="0.5"/>
      <line id="선_537-2" data-name="선 537" y1="3.114" x2="3.788" transform="translate(259.571 29.208)" fill="none" stroke="#427dff" stroke-miterlimit="10" stroke-width="0.5"/>
      <path id="패스_811-2" data-name="패스 811" d="M-1540.62,2848.469l22.681,8.652c8.671,3.307,18.743-.979,21.887-9.711a16.557,16.557,0,0,0-9.679-21.075l-9.173-3.229s8.672-32.588,32.055-59.589a1.5,1.5,0,0,0-.462-2.331l-10.648-4.682S-1513.318,2761.094-1540.62,2848.469Z" transform="translate(1650.805 -2729.856)" fill="none" stroke="#427dff" stroke-miterlimit="10" stroke-width="2"/>
      <path id="패스_812-2" data-name="패스 812" d="M-1491.531,2757.571s-19.672,4.487-46.912,92.015" transform="translate(1650.769 -2729.874)" fill="none" stroke="#427dff" stroke-miterlimit="10" stroke-width="0.5"/>
      <path id="패스_813-2" data-name="패스 813" d="M-1425.811,2852.589l-16.161,4.953-27.112,1.8-18.789-25.985s-9.879-12.971-21.4-7.329" transform="translate(1650.289 -2730.977)" fill="none" stroke="#427dff" stroke-miterlimit="10" stroke-width="2"/>
      <path id="패스_814-2" data-name="패스 814" d="M-1432.044,2890.348l-8.8-32.6,4.759-20.824" transform="translate(1649.164 -2731.178)" fill="none" stroke="#427dff" stroke-miterlimit="10" stroke-width="0.5"/>
      <path id="패스_815-2" data-name="패스 815" d="M-1431.037,2890.282l-8.8-32.6,4.758-20.825" transform="translate(1649.147 -2731.177)" fill="none" stroke="#427dff" stroke-miterlimit="10" stroke-width="0.5"/>
      <path id="패스_816-2" data-name="패스 816" d="M-1456.007,2849.966l-10.142-50.227,19.864-24.453" transform="translate(1649.58 -2730.165)" fill="none" stroke="#427dff" stroke-miterlimit="10" stroke-width="0.5"/>
      <line id="선_538-2" data-name="선 538" x1="16.632" y1="21.077" transform="translate(143.925 128.232)" fill="none" stroke="#427dff" stroke-miterlimit="10" stroke-width="2"/>
      <path id="패스_817-2" data-name="패스 817" d="M-1432.105,2815.6l20.031-1.33a4.023,4.023,0,0,0,3.747-4.281l-1.7-25.547-.554-8.349c-.335-5.041-4.875-7.662-12.735-3.014l-11.133,7.28" transform="translate(1649.058 -2730.089)" fill="none" stroke="#427dff" stroke-miterlimit="10" stroke-width="2"/>
      <path id="패스_818-2" data-name="패스 818" d="M-1386.535,2766.59l-2.728-4.317-31.539,6.953" transform="translate(1648.834 -2729.952)" fill="none" stroke="#427dff" stroke-miterlimit="10" stroke-width="0.5"/>
      <path id="패스_819-2" data-name="패스 819" d="M-1536.286,2735.177c6.745-3.567,10.924-5.766,10.924-5.766l16.422,6.4-2.51,8.336,19.427,8.71.922,4.278,9.615,4.468,2.58,8.105" transform="translate(1650.733 -2729.411)" fill="none" stroke="#427dff" stroke-miterlimit="10" stroke-width="2"/>
      <path id="패스_820-2" data-name="패스 820" d="M-1417.954,2882.43l24.019-1.594,51.245-43.356,8.584-34.14-3.77-1.026-15.559,13.671-39.27,2.606-10.3-9.018-1.856-27.959,22.135-18.447-3.389-4.638-32.933,7.42-4.262,6.933-11.133,7.28,2.405,36.231,8.583,18.406" transform="translate(1649.058 -2729.889)" fill="none" stroke="#427dff" stroke-miterlimit="10" stroke-width="2"/>
      <path id="패스_821-2" data-name="패스 821" d="M-1355.295,2849.091l10.6-35.131-5,.332-16.36,16.337-38.612,2.9-16.612-16.938-10.718.711" transform="translate(1649.018 -2730.801)" fill="none" stroke="#427dff" stroke-miterlimit="10" stroke-width="0.5"/>
      <circle id="타원_170-2" data-name="타원 170" cx="10.982" cy="10.982" r="10.982" transform="translate(128.332 100.693)" fill="none" stroke="#427dff" stroke-miterlimit="10" stroke-width="2"/>
      <ellipse id="타원_171-2" data-name="타원 171" cx="7.067" cy="8.256" rx="7.067" ry="8.256" transform="translate(165.455 97.126) rotate(-74.554)" fill="none" stroke="#427dff" stroke-miterlimit="10" stroke-width="2"/>
      <circle id="타원_172-2" data-name="타원 172" cx="3.412" cy="3.412" r="3.412" transform="translate(223.772 90.001)" fill="none" stroke="#427dff" stroke-miterlimit="10" stroke-width="2"/>
      <circle id="타원_173-2" data-name="타원 173" cx="3.412" cy="3.412" r="3.412" transform="translate(264.436 123.522)" fill="none" stroke="#427dff" stroke-miterlimit="10" stroke-width="2"/>
      <path id="패스_822-2" data-name="패스 822" d="M-1524.732,2892.051l18.827-18.457s-28.19-4.565-31.686-22.432" transform="translate(1650.755 -2731.413)" fill="none" stroke="#427dff" stroke-miterlimit="10" stroke-width="2"/>
      <path id="패스_823-2" data-name="패스 823" d="M-1541.421,2848.168l-17.239,35.183-30.682-16.089,16.3-31.34s-2.17-17.8,17.887-58.918c0,0,13.918-27.307,28.985-38.774l13.847,6.059" transform="translate(1651.606 -2729.556)" fill="none" stroke="#427dff" stroke-miterlimit="10" stroke-width="2"/>
      <path id="패스_824-2" data-name="패스 824" d="M-1547.381,2886.927l-3.4,3.99-15.006.741" transform="translate(1651.219 -2732.001)" fill="none" stroke="#427dff" stroke-miterlimit="10" stroke-width="2"/>
      <path id="패스_825-2" data-name="패스 825" d="M-1447.087,2837.536l10.606-.7,11.4-.757-1.124,16.7,6.626,30.928-13.984,6.629-47.107,3.127-9.457-12.988-24.1,21.512-10.432-10.183-8.806-22.4" transform="translate(1650.687 -2731.165)" fill="none" stroke="#427dff" stroke-miterlimit="10" stroke-width="2"/>
      <path id="패스_826-2" data-name="패스 826" d="M-1440.008,2827.591l-6.924-52.386-31.466-4.825c-24.682,28.145-27.084,46.806-27.084,46.806,6.243-1.184,15,1.865,20.28,9.365l17.491,24.068,11.056-.734Z" transform="translate(1650.227 -2730.085)" fill="none" stroke="#427dff" stroke-miterlimit="10" stroke-width="2"/>
      <path id="패스_827-2" data-name="패스 827" d="M-1445.953,2775.286" transform="translate(1649.248 -2730.166)" fill="none" stroke="#427dff" stroke-miterlimit="10" stroke-width="2"/>
      <path id="패스_828-2" data-name="패스 828" d="M-1574.875,2840.111l-49.546-27.984-.007.012c-4.206-2.022-13.318,6.495-20.518,19.243s-9.791,24.949-5.888,27.507l-.008.013,49.549,27.987" transform="translate(1652.647 -2730.767)" fill="none" stroke="#427dff" stroke-miterlimit="10" stroke-width="2"/>
      <path id="패스_829-2" data-name="패스 829" d="M-1601.092,2886.875c-3.2-3.226-.53-14.931,6.361-27.132,7.294-12.913,16.553-21.492,20.683-19.166" transform="translate(1651.821 -2731.233)" fill="none" stroke="#427dff" stroke-miterlimit="10" stroke-width="0.5"/>
      <path id="패스_830-2" data-name="패스 830" d="M-1600.444,2888.136a2.864,2.864,0,0,1-.626-.48" transform="translate(1651.799 -2732.013)" fill="none" stroke="#427dff" stroke-miterlimit="10" stroke-width="2"/>
      <path id="패스_831-2" data-name="패스 831" d="M-1582.451,2873.192c-6.745,10.363-14.35,16.758-17.982,14.706" transform="translate(1651.788 -2731.775)" fill="none" stroke="#427dff" stroke-miterlimit="10" stroke-width="2"/>
      <path id="패스_832-2" data-name="패스 832" d="M-1560.821,2884.555l-18.555,23.911-11.1.737.143-14.306,9.437-.626,10.771-14.594Z" transform="translate(1651.625 -2731.882)" fill="none" stroke="#427dff" stroke-miterlimit="10" stroke-width="2"/>
      <line id="선_539-2" data-name="선 539" x2="0.054" y2="11.387" transform="translate(72.194 165.196)" fill="none" stroke="#427dff" stroke-miterlimit="10" stroke-width="0.5"/>
      <line id="선_540-2" data-name="선 540" x1="5.262" y2="0.349" transform="translate(238.915 51.415)" fill="none" stroke="#427dff" stroke-miterlimit="10" stroke-width="0.5"/>
      <path id="패스_833-2" data-name="패스 833" d="M-1590.361,2897.833l10.932-.726,11.15-15.679" transform="translate(1651.623 -2731.911)" fill="none" stroke="#427dff" stroke-miterlimit="10" stroke-width="0.5"/>
      <line id="선_541-2" data-name="선 541" x1="13.676" y1="6.174" transform="translate(59.884 152.821)" fill="none" stroke="#427dff" stroke-miterlimit="10" stroke-width="2"/>
      <path id="패스_834-2" data-name="패스 834" d="M-1410.165,2782.252c-.4-6.1-4.171-11.3-12.152-5.958l-11.7,7.987" transform="translate(1649.051 -2730.146)" fill="none" stroke="#427dff" stroke-miterlimit="10" stroke-width="0.5"/>
      <path id="패스_835-2" data-name="패스 835" d="M-1559.3,2754.072a171.705,171.705,0,0,0-16.392,23.475c-12.288,20.769-18.832,39.627-14.617,42.12l8.819,5.22h0A153.884,153.884,0,0,1-1548,2761.017" transform="translate(1651.643 -2729.816)" fill="none" stroke="#427dff" stroke-miterlimit="10" stroke-width="2"/>
      <path id="패스_836-2" data-name="패스 836" d="M-1591.582,2815.394l-25.664-15.184c-3.934-2.326,2.175-19.93,13.645-39.317s23.957-33.216,27.891-30.889l20.244,11.977" transform="translate(1652.085 -2729.416)" fill="none" stroke="#427dff" stroke-miterlimit="10" stroke-width="2"/>
      <path id="패스_837-2" data-name="패스 837" d="M-1530.222,2738.994c-1.321-.781-5.515,3.862-9.366,10.373a48.73,48.73,0,0,0-4.091,9.726" transform="translate(1650.855 -2729.568)" fill="none" stroke="#427dff" stroke-miterlimit="10" stroke-width="0.5"/>
      <path id="패스_838-2" data-name="패스 838" d="M-1529.947,2742.169c.468-1.7.485-2.858-.05-3.175" transform="translate(1650.63 -2729.568)" fill="none" stroke="#427dff" stroke-miterlimit="10" stroke-width="2"/>
      <path id="패스_839-2" data-name="패스 839" d="M-1545.982,2761.507l-12.459-7.371c-1.321-.782.73-6.693,4.583-13.2s8.044-11.156,9.366-10.374l14.021,8.3" transform="translate(1651.104 -2729.428)" fill="none" stroke="#427dff" stroke-miterlimit="10" stroke-width="2"/>
      <line id="선_542-2" data-name="선 542" x2="8.39" y2="4.964" transform="translate(70.925 92.144)" fill="none" stroke="#427dff" stroke-miterlimit="10" stroke-width="2"/>
      <rect id="사각형_31395-2" data-name="사각형 31395" width="4.298" height="13.372" rx="2.149" transform="translate(133.19 108.239) rotate(-42.885)" fill="none" stroke="#427dff" stroke-miterlimit="10" stroke-width="0.5"/>
      <path id="패스_840-2" data-name="패스 840" d="M-1530.163,2863.189" transform="translate(1650.633 -2731.611)" fill="none" stroke="#427dff" stroke-miterlimit="10" stroke-width="2"/>
      <path id="패스_841-2" data-name="패스 841" d="M-1530.595,2862.985l-12.415,25.422-13.4-6.594,15.153-31.029" transform="translate(1651.064 -2731.407)" fill="none" stroke="#427dff" stroke-miterlimit="10" stroke-width="2"/>
      <ellipse id="타원_174-2" data-name="타원 174" cx="1.528" cy="2.774" rx="1.528" ry="2.774" transform="translate(39.971 146.344) rotate(-63.797)" fill="none" stroke="#427dff" stroke-miterlimit="10" stroke-width="2"/>
      <ellipse id="타원_175-2" data-name="타원 175" cx="1.528" cy="2.774" rx="1.528" ry="2.774" transform="translate(41.412 138.363) rotate(-63.797)" fill="none" stroke="#427dff" stroke-miterlimit="10" stroke-width="2"/>
      <path id="패스_842-2" data-name="패스 842" d="M-1419.845,2776.376a5.2,5.2,0,0,0,.487,7.331,5.2,5.2,0,0,0,7.331-.487" transform="translate(1648.839 -2730.183)" fill="none" stroke="#427dff" stroke-miterlimit="10" stroke-width="0.5"/>
    </g>
  </g>
</svg>
